<svg xmlns="http://www.w3.org/2000/svg" viewBox="0 0 720 260" width="720" height="260" font-family="ui-monospace, monospace">
  <rect width="720" height="260" rx="12" fill="#0d1117"/>
  <g fill="#161b22" stroke="#30363d">
    <rect x="40" y="100" width="150" height="60" rx="8"/>
    <rect x="285" y="100" width="150" height="60" rx="8"/>
    <rect x="530" y="40" width="150" height="50" rx="8"/>
    <rect x="530" y="105" width="150" height="50" rx="8"/>
    <rect x="530" y="170" width="150" height="50" rx="8"/>
  </g>
  <g fill="#c9d1d9" font-size="14" text-anchor="middle">
    <text x="115" y="135">LLM Agent</text>
    <text x="360" y="135">MCP Server</text>
    <text x="605" y="70">Filesystem</text>
    <text x="605" y="135">Database</text>
    <text x="605" y="200">External API</text>
  </g>
  <g stroke="#6366f1" stroke-width="2" fill="none" marker-end="url(#arrow)">
    <path d="M190 130 H285"/>
    <path d="M435 130 L530 65"/>
    <path d="M435 130 H530"/>
    <path d="M435 130 L530 195"/>
  </g>
  <defs>
    <marker id="arrow" viewBox="0 0 10 10" refX="9" refY="5" markerWidth="6" markerHeight="6" orient="auto">
      <path d="M0 0 L10 5 L0 10 z" fill="#6366f1"/>
    </marker>
  </defs>
  <text x="360" y="30" fill="#8b949e" font-size="13" text-anchor="middle">One protocol, many capabilities</text>
</svg>
